HIERARCHY
ROOT ui
{
	 OFFSET 0 0 0
	 CHANNELS 3 XPosition YPosition Z Position
	 EndSite
	 {
	 OFFSET 0 -1 0
	 }
}
ROOT li
{
	 OFFSET 0 0 0
	 CHANNELS 3 XPosition YPosition Z Position
	 EndSite
	 {
	 OFFSET 0 -1 0
	 }
}
ROOT ul
{
	 OFFSET 0 0 0
	 CHANNELS 3 XPosition YPosition Z Position
	 EndSite
	 {
	 OFFSET 0 -1 0
	 }
}
ROOT ll
{
	 OFFSET 0 0 0
	 CHANNELS 3 XPosition YPosition Z Position
	 EndSite
	 {
	 OFFSET 0 -1 0
	 }
}
ROOT tt
{
	 OFFSET 0 0 0
	 CHANNELS 3 XPosition YPosition Z Position
	 EndSite
	 {
	 OFFSET 0 -1 0
	 }
}
ROOT tb
{
	 OFFSET 0 0 0
	 CHANNELS 3 XPosition YPosition Z Position
	 EndSite
	 {
	 OFFSET 0 -1 0
	 }
}
ROOT td
{
	 OFFSET 0 0 0
	 CHANNELS 3 XPosition YPosition Z Position
	 EndSite
	 {
	 OFFSET 0 -1 0
	 }
}
ROOT v
{
	 OFFSET 0 0 0
	 CHANNELS 3 XPosition YPosition Z Position
	 EndSite
	 {
	 OFFSET 0 -1 0
	 }
}
ROOT bn
{
	 OFFSET 0 0 0
	 CHANNELS 3 XPosition YPosition Z Position
	 EndSite
	 {
	 OFFSET 0 -1 0
	 }
}
MOTION
Frames: 27
Frame Time: 0.002
-0.017120664596557617	-0.002751988887786865	0		0.5304053344726563	-2.46343994140625	0		-1.249355224609375	-0.08497144317626953	0		-0.8193740234375	-2.438048095703125	0		2.320902587890625	-1.6317568359375	0		3.568221923828125	-0.2956264953613281	0		4.85871337890625	0.3188486633300781	0		5.93007177734375	0.4112608642578125	0		-0.1365015106201172	5.915423828125	0		
0.008981886863708497	-0.003356842041015625	0		0.5056131896972657	-2.458343994140625	0		-1.1464356689453126	-0.09963943481445313	0		-0.7402577514648437	-2.440384765625	0		2.390845458984375	-1.645928466796875	0		3.616203857421875	-0.3054825439453125	0		4.87371728515625	0.31145867919921877	0		5.93017138671875	0.41108856201171873	0		-0.16858074951171875	5.907607421875	0		
-0.005774697780609131	0.006589862823486328	0		0.5186929321289062	-2.462770751953125	0		-1.2131590576171876	-0.08699954986572266	0		-0.7980629272460937	-2.435861572265625	0		2.40679296875	-1.6593726806640625	0		3.65132373046875	-0.3051719055175781	0		4.89199462890625	0.32401437377929687	0		5.9394892578125	0.42677899169921873	0		-0.13627621459960937	5.926912109375	0		
0.01323585033416748	-9.304569959640502E-4	0		0.532851806640625	-2.461218505859375	0		-1.1330716552734375	-0.08936183929443359	0		-0.737962890625	-2.43894775390625	0		2.401836669921875	-1.6655419921875	0		3.656447509765625	-0.30446484375	0		4.90900244140625	0.31657196044921876	0		5.9388232421875	0.44358978271484373	0		-0.1665262908935547	5.9050576171875	0		
-0.012652722358703614	-8.470730185508728E-4	0		0.5309412841796874	-2.464456298828125	0		-1.247005615234375	-0.09209283447265625	0		-0.8246755981445313	-2.42704345703125	0		2.430671875	-1.6871832275390626	0		3.653369384765625	-0.318661376953125	0		4.91910791015625	0.3162083129882812	0		5.93772509765625	0.4283857116699219	0		-0.16646774291992186	5.9047861328125	0		
0.00941474723815918	-0.004423383235931396	0		0.5310678100585937	-2.464730712890625	0		-1.2068985595703126	-0.09292189025878907	0		-0.751651123046875	-2.43531689453125	0		2.430793212890625	-1.687445068359375	0		3.69446435546875	-0.3204715576171875	0		4.94510498046875	0.3076107177734375	0		5.95093994140625	0.4359698181152344	0		-0.16639649963378905	5.90450732421875	0		
-0.016471660614013672	-0.0043571100234985356	0		0.4871537780761719	-2.46741748046875	0		-1.2708624267578126	-0.09834510040283204	0		-0.80160546875	-2.440927978515625	0		2.50356640625	-1.71370849609375	0		3.703413330078125	-0.3328619689941406	0		4.95909130859375	0.2981579895019531	0		5.951048828125	0.4357109069824219	0		-0.13503067016601564	5.92479736328125	0		
0.020772937774658204	0.004844820022583008	0		0.535376953125	-2.46036328125	0		-1.2147279052734374	-0.09740361785888672	0		-0.8182135620117188	-2.42099658203125	0		2.514668701171875	-1.71514599609375	0		3.7337138671875	-0.3195552978515625	0		4.9881865234375	0.2964830322265625	0		5.95526806640625	0.4433769836425781	0		-0.10185614776611328	5.9300537109375	0		
-0.009151337623596191	0.001948760986328125	0		0.5153857421875	-2.46839404296875	0		-1.2515565185546875	-0.09320626068115234	0		-0.7353092651367188	-2.437425048828125	0		2.510689208984375	-1.722392578125	0		3.739596435546875	-0.3369357299804687	0		4.999298828125	0.2960341491699219	0		5.951490234375	0.45113153076171875	0		-0.16512083435058594	5.902607421875	0		
0.009866480827331542	-0.005619520187377929	0		0.5315357055664063	-2.46592333984375	0		-1.2445106201171876	-0.09861002349853516	0		-0.8220547485351563	-2.4265556640625	0		2.508760498046875	-1.72568017578125	0		3.7837607421875	-0.3338499145507812	0		5.01430419921875	0.2875125732421875	0		5.95960498046875	0.4507027587890625	0		-0.1650108642578125	5.901296875	0		
-0.020948369979858397	-5.181040167808533E-4	0		0.5026564025878906	-2.464850830078125	0		-1.240342529296875	-0.09497840881347656	0		-0.74702490234375	-2.432888427734375	0		2.56249658203125	-1.753739501953125	0		3.76278076171875	-0.3408984375	0		5.0293095703125	0.2789705810546875	0		5.95950390625	0.4343612365722656	0		-0.16487242126464843	5.900978515625	0		
0.010094803810119629	-0.0062641148567199705	0		0.5505183715820312	-2.482830078125	0		-1.215218017578125	-0.09463523101806641	0		-0.7970043334960938	-2.43852978515625	0		2.536533203125	-1.7587291259765625	0		3.7866728515625	-0.3575740356445313	0		5.0384111328125	0.2774886779785156	0		5.9518388671875	0.45010226440429685	0		-0.1627593994140625	5.897626953125	0		
-0.004654139995574951	0.003607460021972656	0		0.5277056884765625	-2.475854736328125	0		-1.20411962890625	-0.09610419464111328	0		-0.7548905029296875	-2.437424072265625	0		2.58744873046875	-1.7727763671875	0		3.831711181640625	-0.36355242919921876	0		5.06240283203125	0.26778402709960936	0		5.96895556640625	0.449483154296875	0		-0.13032035827636718	5.91686083984375	0		
0.01652646255493164	0.007986498832702636	0		0.540802001953125	-2.475373046875	0		-1.2099378662109375	-0.09134315490722657	0		-0.8145830078125	-2.420935302734375	0		2.61640283203125	-1.7835367431640625	0		3.8269169921875	-0.35686737060546875	0		5.08273681640625	0.28311306762695315	0		5.9603076171875	0.4661953125	0		-0.16141551208496094	5.895951171875	0		
-0.00846492862701416	-1.0023999959230423E-5	0		0.5388526000976562	-2.47769140625	0		-1.1979749755859375	-0.10282457733154297	0		-0.7327163696289063	-2.43737548828125	0		2.618300048828125	-1.7979395751953124	0		3.838644287109375	-0.38542349243164065	0		5.08854248046875	0.259619140625	0		5.9643203125	0.4577139282226563	0		-0.1612111358642578	5.8956162109375	0		
0.010552437782287597	-0.007607484817504883	0		0.536882080078125	-2.4810126953125	0		-1.1978623046875	-0.10314236450195312	0		-0.8065704345703125	-2.431693115234375	0		2.62321826171875	-1.810392822265625	0		3.847710205078125	-0.3889538879394531	0		5.09866064453125	0.25905245971679686	0		5.964443359375	0.4572678833007813	0		-0.16099098205566406	5.89527978515625	0		
-0.020264150619506836	-0.002525485992431641	0		0.5389842529296875	-2.478391845703125	0		-1.1757813720703125	-0.10575849151611329	0		-0.7566218872070313	-2.440698974609375	0		2.635019287109375	-1.8309493408203126	0		3.855527099609375	-0.4104808349609375	0		5.10855908203125	0.24247200012207032	0		5.95656591796875	0.4569139099121094	0		-0.12947352600097656	5.91551708984375	0		
0.021909086227416993	0.0015594589710235596	0		0.5509527587890625	-2.484908447265625	0		-1.17163427734375	-0.10312701416015625	0		-0.7915113525390625	-2.4365439453125	0		2.644016845703125	-1.8364732666015624	0		3.86680322265625	-0.39806204223632813	0		5.12765771484375	0.24075379943847655	0		5.96879345703125	0.46427102661132813	0		-0.15854013061523436	5.892578125	0		
-0.003984512090682984	0.0015762649774551391	0		0.539076904296875	-2.479097412109375	0		-1.167478515625	-0.09949131774902344	0		-0.7304613647460938	-2.43669873046875	0		2.678823974609375	-1.855357177734375	0		3.883566650390625	-0.4227298278808594	0		5.13367138671875	0.23320314025878905	0		5.9730322265625	0.47272491455078125	0		-0.15730035400390624	5.89122998046875	0		
0.013124397277832031	0.0020076088905334475	0		0.5370643310546875	-2.482419921875	0		-1.160453857421875	-0.10489004516601562	0		-0.7772900390625	-2.426369384765625	0		2.67682861328125	-1.8587386474609375	0		3.899718994140625	-0.41839227294921877	0		5.13866455078125	0.22465846252441407	0		5.98114111328125	0.47211514282226563	0		-0.12296204376220703	5.896431640625	0		
-0.007842679023742676	-0.002033582925796509	0		0.5449384765625	-2.492875	0		-1.141290283203125	-0.09944783782958984	0		-0.7344725952148438	-2.441266845703125	0		2.672777587890625	-1.86509228515625	0		3.885546142578125	-0.43664337158203126	0		5.143646484375	0.21610835266113282	0		5.97224169921875	0.4717320251464844	0		-0.15678111267089845	5.8905732421875	0		
-0.0108268404006958	-0.006315091133117676	0		0.5199884033203125	-2.488871337890625	0		-1.2532120361328125	-0.09819094848632813	0		-0.7914317626953125	-2.437781494140625	0		2.693428955078125	-1.891786865234375	0		3.896381591796875	-0.4532392272949219	0		5.14861328125	0.20755494689941406	0		5.98132666015625	0.47109661865234376	0		-0.15455291748046876	5.8882275390625	0		
-6.239479780197144E-4	0.004230918884277343	0		0.550996337890625	-2.48663232421875	0		-1.1971409912109374	-0.09723872375488281	0		-0.7853644409179688	-2.43115380859375	0		2.700555908203125	-1.8822890625	0		3.927346435546875	-0.45911163330078125	0		5.16254638671875	0.19787635803222656	0		5.99037939453125	0.469458740234375	0		-0.12205973815917968	5.9054736328125	0		
-0.003647968053817749	-3.146500140428543E-5	0		0.546871826171875	-2.491900146484375	0		-1.1971134033203126	-0.09750141906738281	0		-0.7175909423828125	-2.4443720703125	0		2.726338623046875	-1.8960465087890626	0		3.918389892578125	-0.45742816162109373	0		5.1676943359375	0.20532223510742187	0		5.98167724609375	0.4870688781738281	0		-0.1531112518310547	5.88460498046875	0		
-0.008569076538085937	0.004746203899383545	0		0.5717183837890625	-2.497558349609375	0		-1.1151297607421875	-0.0998886489868164	0		-0.7546255493164062	-2.441123779296875	0		2.731111572265625	-1.90850537109375	0		3.9130908203125	-0.47879046630859373	0		5.16361376953125	0.19789930725097657	0		5.98170361328125	0.4865601196289063	0		-0.1528885498046875	5.88431884765625	0		
-0.012637076377868652	5.25846004486084E-4	0		0.5426141357421875	-2.49745263671875	0		-1.19712451171875	-0.09798103332519531	0		-0.7218311767578125	-2.4488310546875	0		2.731026611328125	-1.9088851318359374	0		3.93194677734375	-0.48747882080078125	0		5.1743984375	0.18227593994140626	0		5.981486328125	0.4700592346191406	0		-0.15169345092773437	5.8830341796875	0		
0.013327690124511718	-9.785600006580353E-5	0		0.5513715209960938	-2.505859619140625	0		-1.1861900634765625	-0.1003488540649414	0		-0.79182666015625	-2.4390869140625	0		2.7446806640625	-1.9264462890625	0		3.946697998046875	-0.5021010131835938	0		5.16924755859375	0.17288429260253907	0		5.977583984375	0.47762054443359375	0		-0.12119270324707031	5.90435791015625	0		
